# MagicaVoxel @ Ephtracy

# group
o 

# material
mtllib Enemy.mtl
usemtl palette

# normals
vn -1 0 0
vn 1 0 0
vn 0 0 1
vn 0 0 -1
vn 0 -1 0
vn 0 1 0

# texcoords
vt 0.845703 0.5
vt 0.962891 0.5
vt 0.978516 0.5

# verts
v -0.5 0 0.5
v -0.5 0 0.3
v -0.5 0 -0.3
v -0.5 0 -0.5
v -0.5 0.7 0.3
v -0.5 0.7 -0.3
v -0.5 0.9 0.5
v -0.5 0.9 -0.5
v -0.5 2 0.5
v -0.5 2 -0.5
v 0.3 0 0.5
v 0.3 0 0.3
v 0.3 0 -0.3
v 0.3 0 -0.5
v 0.3 0.7 0.5
v 0.3 0.7 0.3
v 0.3 0.7 -0.3
v 0.3 0.7 -0.4
v 0.3 0.7 -0.5
v 0.3 0.8 0.3
v 0.3 0.8 -0.4
v -0.3 0 0.5
v -0.3 0 0.3
v -0.3 0 -0.3
v -0.3 0 -0.5
v -0.3 0.7 0.5
v -0.3 0.7 0.3
v -0.3 0.7 -0.3
v -0.3 0.7 -0.4
v -0.3 0.7 -0.5
v -0.3 0.8 0.3
v -0.3 0.8 -0.4
v 0.5 0 0.5
v 0.5 0 0.3
v 0.5 0 -0.3
v 0.5 0 -0.5
v 0.5 0.7 0.3
v 0.5 0.7 -0.3
v 0.5 0.9 0.5
v 0.5 0.9 -0.5
v 0.5 2 0.5
v 0.5 2 -0.5
v -0.5 0 0.5
v -0.5 0.9 0.5
v -0.5 2 0.5
v -0.3 0 0.5
v -0.3 0.7 0.5
v 0.3 0 0.5
v 0.3 0.7 0.5
v 0.5 0 0.5
v 0.5 0.9 0.5
v 0.5 2 0.5
v -0.5 0 -0.3
v -0.5 0.7 -0.3
v -0.3 0 -0.3
v -0.3 0.7 -0.3
v 0.3 0 -0.3
v 0.3 0.7 -0.3
v 0.5 0 -0.3
v 0.5 0.7 -0.3
v -0.3 0.7 -0.4
v -0.3 0.8 -0.4
v 0.3 0.7 -0.4
v 0.3 0.8 -0.4
v -0.5 0 0.3
v -0.5 0.7 0.3
v -0.3 0 0.3
v -0.3 0.7 0.3
v -0.3 0.8 0.3
v 0.3 0 0.3
v 0.3 0.7 0.3
v 0.3 0.8 0.3
v 0.5 0 0.3
v 0.5 0.7 0.3
v -0.5 0 -0.5
v -0.5 0.9 -0.5
v -0.5 2 -0.5
v -0.4 1.1 -0.5
v -0.4 1.9 -0.5
v -0.3 0 -0.5
v -0.3 0.7 -0.5
v -0.3 1.2 -0.5
v -0.3 1.8 -0.5
v -0.2 1.3 -0.5
v -0.2 1.7 -0.5
v -0.1 1.4 -0.5
v -0.1 1.6 -0.5
v 0.1 1.4 -0.5
v 0.1 1.6 -0.5
v 0.2 1.3 -0.5
v 0.2 1.7 -0.5
v 0.3 0 -0.5
v 0.3 0.7 -0.5
v 0.3 1.2 -0.5
v 0.3 1.8 -0.5
v 0.4 1.1 -0.5
v 0.4 1.9 -0.5
v 0.5 0 -0.5
v 0.5 0.9 -0.5
v 0.5 2 -0.5
v -0.5 0 0.5
v -0.3 0 0.5
v 0.3 0 0.5
v 0.5 0 0.5
v -0.5 0 0.3
v -0.3 0 0.3
v 0.3 0 0.3
v 0.5 0 0.3
v -0.5 0 -0.3
v -0.3 0 -0.3
v 0.3 0 -0.3
v 0.5 0 -0.3
v -0.5 0 -0.5
v -0.3 0 -0.5
v 0.3 0 -0.5
v 0.5 0 -0.5
v -0.3 0.7 0.5
v 0.3 0.7 0.5
v -0.5 0.7 0.3
v -0.3 0.7 0.3
v 0.3 0.7 0.3
v 0.5 0.7 0.3
v -0.5 0.7 -0.3
v -0.3 0.7 -0.3
v 0.3 0.7 -0.3
v 0.5 0.7 -0.3
v -0.3 0.7 -0.4
v 0.3 0.7 -0.4
v -0.3 0.7 -0.5
v 0.3 0.7 -0.5
v -0.3 0.8 0.3
v 0.3 0.8 0.3
v -0.3 0.8 -0.4
v 0.3 0.8 -0.4
v -0.5 2 0.5
v 0.5 2 0.5
v -0.5 2 -0.5
v 0.5 2 -0.5

# faces
f 5/3/1 2/3/1 1/3/1
f 6/3/1 4/3/1 3/3/1
f 7/3/1 5/3/1 1/3/1
f 7/3/1 6/3/1 5/3/1
f 8/3/1 4/3/1 6/3/1
f 8/3/1 6/3/1 7/3/1
f 9/2/1 8/2/1 7/2/1
f 10/2/1 8/2/1 9/2/1
f 15/3/1 12/3/1 11/3/1
f 16/3/1 12/3/1 15/3/1
f 17/3/1 14/3/1 13/3/1
f 18/3/1 14/3/1 17/3/1
f 19/3/1 14/3/1 18/3/1
f 20/3/1 17/3/1 16/3/1
f 20/3/1 18/3/1 17/3/1
f 21/3/1 18/3/1 20/3/1
f 22/3/2 23/3/2 26/3/2
f 26/3/2 23/3/2 27/3/2
f 24/3/2 25/3/2 28/3/2
f 28/3/2 25/3/2 29/3/2
f 29/3/2 25/3/2 30/3/2
f 27/3/2 28/3/2 31/3/2
f 28/3/2 29/3/2 31/3/2
f 31/3/2 29/3/2 32/3/2
f 33/3/2 34/3/2 37/3/2
f 35/3/2 36/3/2 38/3/2
f 33/3/2 37/3/2 39/3/2
f 37/3/2 38/3/2 39/3/2
f 38/3/2 36/3/2 40/3/2
f 39/3/2 38/3/2 40/3/2
f 39/2/2 40/2/2 41/2/2
f 41/2/2 40/2/2 42/2/2
f 46/3/3 44/3/3 43/3/3
f 47/3/3 44/3/3 46/3/3
f 49/3/3 44/3/3 47/3/3
f 50/3/3 49/3/3 48/3/3
f 51/2/3 45/2/3 44/2/3
f 51/3/3 49/3/3 50/3/3
f 51/3/3 44/3/3 49/3/3
f 52/2/3 45/2/3 51/2/3
f 55/3/3 54/3/3 53/3/3
f 56/3/3 54/3/3 55/3/3
f 59/3/3 58/3/3 57/3/3
f 60/3/3 58/3/3 59/3/3
f 63/3/3 62/3/3 61/3/3
f 64/3/3 62/3/3 63/3/3
f 65/3/4 66/3/4 67/3/4
f 67/3/4 66/3/4 68/3/4
f 68/3/4 69/3/4 71/3/4
f 71/3/4 69/3/4 72/3/4
f 70/3/4 71/3/4 73/3/4
f 73/3/4 71/3/4 74/3/4
f 76/2/4 77/2/4 78/2/4
f 78/2/4 77/2/4 79/2/4
f 75/3/4 76/3/4 80/3/4
f 80/3/4 76/3/4 81/3/4
f 78/1/4 79/1/4 82/1/4
f 82/1/4 79/1/4 83/1/4
f 82/2/4 83/2/4 84/2/4
f 84/2/4 83/2/4 85/2/4
f 84/1/4 85/1/4 86/1/4
f 86/1/4 85/1/4 87/1/4
f 84/1/4 86/1/4 88/1/4
f 86/2/4 87/2/4 88/2/4
f 87/1/4 85/1/4 89/1/4
f 88/2/4 87/2/4 89/2/4
f 82/2/4 84/2/4 90/2/4
f 84/1/4 88/1/4 90/1/4
f 88/1/4 89/1/4 90/1/4
f 89/1/4 85/1/4 91/1/4
f 90/1/4 89/1/4 91/1/4
f 85/2/4 83/2/4 91/2/4
f 81/3/4 76/3/4 93/3/4
f 78/1/4 82/1/4 94/1/4
f 82/2/4 90/2/4 94/2/4
f 90/2/4 91/2/4 94/2/4
f 91/2/4 83/2/4 95/2/4
f 94/2/4 91/2/4 95/2/4
f 83/1/4 79/1/4 95/1/4
f 76/2/4 78/2/4 96/2/4
f 78/1/4 94/1/4 96/1/4
f 94/1/4 95/1/4 96/1/4
f 79/2/4 77/2/4 97/2/4
f 96/1/4 95/1/4 97/1/4
f 95/1/4 79/1/4 97/1/4
f 92/3/4 93/3/4 98/3/4
f 76/2/4 96/2/4 99/2/4
f 98/3/4 93/3/4 99/3/4
f 93/3/4 76/3/4 99/3/4
f 96/2/4 97/2/4 99/2/4
f 97/2/4 77/2/4 100/2/4
f 99/2/4 97/2/4 100/2/4
f 105/3/5 102/3/5 101/3/5
f 106/3/5 102/3/5 105/3/5
f 107/3/5 104/3/5 103/3/5
f 108/3/5 104/3/5 107/3/5
f 113/3/5 110/3/5 109/3/5
f 114/3/5 110/3/5 113/3/5
f 115/3/5 112/3/5 111/3/5
f 116/3/5 112/3/5 115/3/5
f 120/3/5 118/3/5 117/3/5
f 121/3/5 118/3/5 120/3/5
f 123/3/5 120/3/5 119/3/5
f 124/3/5 120/3/5 123/3/5
f 125/3/5 122/3/5 121/3/5
f 126/3/5 122/3/5 125/3/5
f 129/3/5 128/3/5 127/3/5
f 130/3/5 128/3/5 129/3/5
f 133/3/5 132/3/5 131/3/5
f 134/3/5 132/3/5 133/3/5
f 135/2/6 136/2/6 137/2/6
f 137/2/6 136/2/6 138/2/6
